<?xml version="1.0" encoding="UTF-8" standalone="no"?>
<!-- Created with Inkscape (http://www.inkscape.org/) -->

<svg
   xmlns:dc="http://purl.org/dc/elements/1.1/"
   xmlns:cc="http://creativecommons.org/ns#"
   xmlns:rdf="http://www.w3.org/1999/02/22-rdf-syntax-ns#"
   xmlns:svg="http://www.w3.org/2000/svg"
   xmlns="http://www.w3.org/2000/svg"
   xmlns:sodipodi="http://sodipodi.sourceforge.net/DTD/sodipodi-0.dtd"
   xmlns:inkscape="http://www.inkscape.org/namespaces/inkscape"
   width="128.0016"
   height="162.7627"
   id="svg2"
   version="1.1"
   inkscape:version="0.48.1 "
   sodipodi:docname="New document 1">
  <defs
     id="defs4" />
  <sodipodi:namedview
     id="base"
     pagecolor="#ffffff"
     bordercolor="#666666"
     borderopacity="1.0"
     inkscape:pageopacity="0.0"
     inkscape:pageshadow="2"
     inkscape:zoom="1.979899"
     inkscape:cx="136.20518"
     inkscape:cy="23.346777"
     inkscape:document-units="px"
     inkscape:current-layer="layer1"
     showgrid="false"
     fit-margin-top="5"
     fit-margin-left="5"
     fit-margin-right="5"
     fit-margin-bottom="5"
     inkscape:window-width="1280"
     inkscape:window-height="975"
     inkscape:window-x="-4"
     inkscape:window-y="-4"
     inkscape:window-maximized="1" />
  <metadata
     id="metadata7">
    <rdf:RDF>
      <cc:Work
         rdf:about="">
        <dc:format>image/svg+xml</dc:format>
        <dc:type
           rdf:resource="http://purl.org/dc/dcmitype/StillImage" />
        <dc:title></dc:title>
      </cc:Work>
    </rdf:RDF>
  </metadata>
  <g
     inkscape:label="Layer 1"
     inkscape:groupmode="layer"
     id="layer1"
     transform="translate(-36.985622,-13.615057)">
    <g
       id="g3846"
       transform="translate(32.857143,10.714286)"
       style="stroke:#000000;stroke-linecap:round;stroke-opacity:1">
      <g
         style="stroke:#000000;stroke-width:3;stroke-linecap:round;stroke-miterlimit:4;stroke-opacity:1;stroke-dasharray:none"
         transform="matrix(0.98483377,0.17350053,-0.17350053,0.98483377,-178.88154,-223.02177)"
         id="g3833">
        <path
           style="fill:none;stroke:#000000;stroke-width:3;stroke-linecap:round;stroke-linejoin:miter;stroke-miterlimit:4;stroke-opacity:1;stroke-dasharray:none"
           d="m 331.42857,264.36218 c 15.58737,-9.11765 14.64656,-14.38287 13.38978,-18.23223 -7.6762,-23.5113 -101.24692,46.08937 -109.10406,-0.3392 -5.01142,-29.61294 28.57142,-64.28571 48.57142,-57.85714 20,6.42857 19.28572,22.14286 17.14286,32.14286 -2.14286,10 -15,16.42857 -27.85714,17.14285 -12.85714,0.71429 -19.28572,-5.71428 -17.14286,-12.85714"
           id="path3013"
           inkscape:connector-curvature="0"
           sodipodi:nodetypes="csssssc" />
        <path
           style="fill:none;stroke:#000000;stroke-width:3;stroke-linecap:round;stroke-linejoin:miter;stroke-miterlimit:4;stroke-opacity:1;stroke-dasharray:none"
           d="m 331.59817,264.52807 c 53.75,-36.42857 -15.62386,-44.82732 -37.90539,-33.25535"
           id="path3017"
           inkscape:connector-curvature="0"
           sodipodi:nodetypes="cc" />
        <path
           style="fill:none;stroke:#000000;stroke-width:3;stroke-linecap:round;stroke-linejoin:miter;stroke-miterlimit:4;stroke-opacity:1;stroke-dasharray:none"
           d="m 295.57143,226.36218 c -6.42857,2.85714 -11.21315,-5.13606 -12.85714,-15 -0.71429,-4.28571 -10.86685,-8.77871 0.71428,-17.14286 12.85714,-9.28571 22.85714,22.85715 12.14286,32.14286 z"
           id="path3789"
           inkscape:connector-curvature="0"
           sodipodi:nodetypes="cssc" />
        <path
           sodipodi:type="arc"
           style="fill:#000000;fill-opacity:1;fill-rule:evenodd;stroke:#000000;stroke-width:3;stroke-linecap:round;stroke-linejoin:miter;stroke-miterlimit:4;stroke-opacity:1;stroke-dasharray:none;stroke-dashoffset:0"
           id="path3793"
           sodipodi:cx="269.64285"
           sodipodi:cy="187.00504"
           sodipodi:rx="1.7857143"
           sodipodi:ry="1.7857143"
           d="m 271.42857,187.00504 c 0,0.98622 -0.79949,1.78571 -1.78572,1.78571 -0.98622,0 -1.78571,-0.79949 -1.78571,-1.78571 0,-0.98623 0.79949,-1.78572 1.78571,-1.78572 0.98623,0 1.78572,0.79949 1.78572,1.78572 z"
           transform="translate(0,12)" />
        <path
           style="fill:none;stroke:#000000;stroke-width:3;stroke-linecap:round;stroke-linejoin:miter;stroke-miterlimit:4;stroke-opacity:1;stroke-dasharray:none"
           d="m 244.86203,230.95516 c -1.42857,-7.85714 -4.28571,-5.71429 -4.28571,2.14286 0,7.85714 4.06581,15.06763 7.14285,16.42857 4.19512,1.85546 1.91375,-5.63222 4.2456,-10.77322"
           id="path3795"
           inkscape:connector-curvature="0"
           sodipodi:nodetypes="cssc" />
        <path
           style="fill:none;stroke:#000000;stroke-width:3;stroke-linecap:round;stroke-linejoin:miter;stroke-miterlimit:4;stroke-opacity:1;stroke-dasharray:none"
           d="m 270.57143,266.21934 c -25.71428,10 -33.93092,23.6361 -2.22666,17.9269 27.30249,-4.91654 51.51237,-14.35548 55.79809,-16.49834"
           id="path3809"
           inkscape:connector-curvature="0"
           sodipodi:nodetypes="csc" />
        <path
           style="fill:none;stroke:#000000;stroke-width:3;stroke-linecap:round;stroke-linejoin:miter;stroke-miterlimit:4;stroke-opacity:1;stroke-dasharray:none"
           d="m 298.78571,285.21932 c 30.71429,-7.14285 37.14286,2.85715 2.14286,12.14286 -35,9.28571 -4.90734,12.32219 0.71428,13.57143 6.42858,1.42857 12.14286,4.28571 -2.14285,15"
           id="path3811"
           inkscape:connector-curvature="0"
           sodipodi:nodetypes="cssc" />
      </g>
      <g
         style="stroke:#000000;stroke-width:3;stroke-linecap:round;stroke-miterlimit:4;stroke-opacity:1;stroke-dasharray:none"
         transform="translate(-244.45691,-160.61425)"
         id="g3825">
        <path
           sodipodi:type="arc"
           style="fill:#000000;fill-opacity:1;fill-rule:evenodd;stroke:#000000;stroke-width:3;stroke-linecap:round;stroke-linejoin:miter;stroke-miterlimit:4;stroke-opacity:1;stroke-dasharray:none;stroke-dashoffset:0"
           id="path3813"
           sodipodi:cx="356.07877"
           sodipodi:cy="293.73761"
           sodipodi:rx="3.0304577"
           sodipodi:ry="3.0304577"
           d="m 359.10922,293.73761 c 0,1.67368 -1.35678,3.03046 -3.03045,3.03046 -1.67368,0 -3.03046,-1.35678 -3.03046,-3.03046 0,-1.67368 1.35678,-3.03046 3.03046,-3.03046 1.67367,0 3.03045,1.35678 3.03045,3.03046 z"
           transform="translate(-11.111678,3.0304576)" />
        <path
           style="fill:none;stroke:#000000;stroke-width:3;stroke-linecap:round;stroke-linejoin:miter;stroke-miterlimit:4;stroke-opacity:1;stroke-dasharray:none"
           d="m 343.95694,299.79854 -0.50508,10.6066"
           id="path3815"
           inkscape:connector-curvature="0" />
        <path
           style="fill:none;stroke:#000000;stroke-width:3;stroke-linecap:round;stroke-linejoin:miter;stroke-miterlimit:4;stroke-opacity:1;stroke-dasharray:none"
           d="m 344.46202,303.83915 10.10152,-6.06092"
           id="path3817"
           inkscape:connector-curvature="0" />
        <path
           style="fill:none;stroke:#000000;stroke-width:3;stroke-linecap:round;stroke-linejoin:miter;stroke-miterlimit:4;stroke-opacity:1;stroke-dasharray:none"
           d="m 343.13619,303.58661 -7.07107,-7.1342"
           id="path3819"
           inkscape:connector-curvature="0" />
        <path
           style="fill:none;stroke:#000000;stroke-width:3;stroke-linecap:round;stroke-linejoin:miter;stroke-miterlimit:4;stroke-opacity:1;stroke-dasharray:none"
           d="m 342.81689,310.74978 -8.57143,8.92858"
           id="path3821"
           inkscape:connector-curvature="0" />
        <path
           style="fill:none;stroke:#000000;stroke-width:3;stroke-linecap:round;stroke-linejoin:miter;stroke-miterlimit:4;stroke-opacity:1;stroke-dasharray:none"
           d="m 344.24546,311.82121 6.07143,1.42857 -2.14286,6.42858"
           id="path3823"
           inkscape:connector-curvature="0" />
      </g>
      <path
         inkscape:connector-curvature="0"
         id="path3844"
         d="m 52.285714,10.076467 c 0,0 -37.142857,1.428572 -32.857143,25"
         style="fill:none;stroke:#000000;stroke-width:3;stroke-linecap:round;stroke-linejoin:miter;stroke-miterlimit:4;stroke-opacity:1;stroke-dasharray:none" />
    </g>
  </g>
</svg>
